# xmcd
#
# Track frame offsets:
#	150
#	17052
#	35050
#	54965
#	63635
#	81742
#	93982
#	105527
#	122815
#	132380
#	150002
#	168477
#
# Disc length: 2614 seconds
#
# Revision: 26
# Processed by: cddbd v1.5.2PL0 Copyright (c) Steve Scherf et al.
# Submitted via: VUPlayer 2.49
#
DISCID=9b0a340c
DTITLE=Enya - Shepherd Moons =1991=
DYEAR=1991
DGENRE=New Age
TTITLE0=Shepherd Moons
TTITLE1=Caribbean Blue
TTITLE2=How Can I Keep from Singing =1988=
TTITLE3=Ebudae
TTITLE4=Angeles
TTITLE5=No Holly for Miss Quinn
TTITLE6=Book of Days
TTITLE7=Evacuee
TTITLE8=Lothlórien
TTITLE9=Marble Halls =1988=
TTITLE10=Afer Ventus
TTITLE11=Smaointe
EXTD=
EXTT0=
EXTT1=
EXTT2=
EXTT3=
EXTT4=
EXTT5=
EXTT6=
EXTT7=
EXTT8=
EXTT9=
EXTT10=
EXTT11=
PLAYORDER=
